<svg width="1440" height="391" viewBox="0 0 1440 391" fill="none" xmlns="http://www.w3.org/2000/svg">
<g style="mix-blend-mode:multiply" opacity="0.03">
<g clip-path="url(#clip0)">
<path d="M599.594 114.786L1461 253.363V249.855L587.322 100.753L599.594 114.786Z" fill="#233759"/>
<path d="M646.346 170.918L1461 268.565V265.057L635.827 158.054L646.346 170.918Z" fill="#233759"/>
<path d="M690.176 223.551L1461 283.777V280.268L680.242 211.272L690.176 223.551Z" fill="#233759"/>
<path d="M730.5 272.088L1461 298.985V294.892L721.15 260.978L730.5 272.088Z" fill="#233759"/>
<path d="M1406.07 310.096H1348.8H1331.26L1274.58 309.511H1256.46H1199.19L1181.07 308.927H1123.22L1106.27 308.342L759.72 307.173L768.486 317.113L1108.61 315.359H1126.14H1183.41H1200.36L1257.04 314.774H1274.58L1331.85 314.189H1349.38H1406.07H1424.18L1461 313.604V310.681L1424.18 310.096H1406.07Z" fill="#233759"/>
<path d="M1423.6 327.043L1406.65 327.628L1349.96 329.382L1333.02 329.967L1278.08 332.306L1260.55 332.89L1205.62 335.229L1188.67 335.814L1133.74 337.568L1117.37 338.153L795.953 349.847L803.55 359.202L1119.13 344.585L1135.49 344L1190.42 341.661L1206.79 340.492L1261.72 338.153L1278.67 337.568L1333.6 335.229L1350.55 334.06L1406.65 331.136L1423.6 330.551L1461 328.797V325.874L1424.18 327.043H1423.6Z" fill="#233759"/>
<path d="M1406.65 344.585L1351.72 349.262L1335.35 350.432L1281.59 355.109L1264.64 355.694L1212.05 360.372L1195.68 361.541L1143.09 365.634L1127.31 366.804L829.264 390.192L836.861 398.963L1129.65 373.236L1145.42 372.066L1197.44 367.388L1213.21 365.634L1265.81 360.957L1282.17 359.787L1335.94 355.109L1352.3 353.94L1406.65 348.678L1423.6 347.508L1461 344V340.492L1423.6 344L1406.65 344.585Z" fill="#233759"/>
<path d="M1406.65 362.113L1353.47 368.545L1337.11 370.299L1285.68 376.731L1268.73 378.485L1217.89 384.917L1202.7 386.671L1152.44 392.518L1137.24 394.272L860.821 427.601L867.834 435.787L1139.58 400.704L1154.77 398.95L1204.45 391.933L1219.64 390.179L1269.9 383.747L1286.26 381.993L1338.28 374.977L1354.05 373.223L1406.65 366.206L1423.6 363.867L1461 359.189V355.681L1423.6 360.359L1406.65 362.113Z" fill="#233759"/>
<path d="M1427.1 403.062L1461 394.876V390.198L1426.52 398.384L1427.1 403.062Z" fill="#233759"/>
<path d="M1008.67 622.321L1011.01 621.737L1011.6 621.152L1019.78 618.228L1015.1 612.966L1000.49 594.84L977.701 567.358L941.468 524.089L933.287 514.734V514.149L867.834 435.797L860.821 427.611L836.861 398.96L829.264 390.189L803.55 359.199L795.953 349.844L768.486 317.1L759.72 307.16L730.5 272.077L721.15 260.967L690.176 223.545L680.242 211.266L646.346 170.921L635.827 158.057L599.594 114.788L587.322 100.755L504.337 0.768555H503.168L583.816 100.17L595.504 114.203L630.568 157.472L641.087 170.336L673.813 211.266L683.748 222.961L714.137 260.382L723.487 271.492L752.123 306.575L760.304 317.1L787.187 350.429L794.784 359.784L819.913 390.774L827.51 399.545L850.886 428.78L857.899 437.551L993.48 604.195L1004.58 617.644L1008.67 622.321Z" fill="#233759"/>
<path d="M960.169 642.774H960.754L971.857 638.097L968.351 633.419V632.834L826.342 441.632L819.329 432.277L797.706 402.456L790.109 393.101L766.733 360.941L759.135 351.586L734.006 317.088L726.409 306.563L699.527 270.895L691.345 259.201L663.294 221.779L653.943 208.915L623.555 168.57L614.204 155.706L582.062 111.853L571.543 97.8194L500.831 2.51071L499.662 3.09543L570.959 101.328L577.972 111.268L608.945 155.122L618.88 167.985L648.1 208.915L656.865 221.194L684.332 259.201L692.514 270.895L718.812 306.563L726.409 317.088L750.954 351.586L757.967 361.526L781.343 393.686L788.355 403.041L809.978 433.446L816.407 442.802L957.247 638.097L960.169 642.774Z" fill="#233759"/>
<path d="M924.521 657.408L921.599 653.315L503.753 14.8049L497.324 4.86478V4.28006L496.155 4.86478L496.74 6.03421L503.168 15.9744L911.08 657.992L913.417 662.085L924.521 657.408Z" fill="#233759"/>
<path d="M545.245 96.6532L525.96 62.1549L520.116 52.2148L500.246 17.7165L494.402 7.77636L493.818 6.02222L492.649 6.60693L493.234 8.36108L499.662 18.886L518.363 52.7995V53.3842L524.207 63.3244L542.908 98.4073L543.492 98.992L542.908 98.4073L545.245 96.6532Z" fill="#233759"/>
<path d="M866.665 682.555L877.185 677.292L875.431 673.784L545.245 96.6693L550.505 107.779L549.336 108.364V108.948L864.328 678.462L866.081 682.555H866.665Z" fill="#233759"/>
<path d="M830.432 697.158L829.264 693.65L679.073 390.183L673.229 379.658L656.281 343.99L650.437 332.881L633.49 297.798L627.646 286.688L610.114 251.605L604.854 241.08L587.322 205.413L582.062 194.303L564.53 159.22L559.271 148.11L541.739 113.612L536.479 103.087L518.947 67.4196L513.688 56.31L496.156 21.2271L490.896 10.7022L489.727 8.36334H488.558L490.312 10.7022H490.896L495.571 21.2271V21.8118L512.519 57.4795L513.688 56.8947L518.363 67.4196L517.778 68.0043L534.142 103.672L535.31 106.011L534.142 103.672L536.479 102.503L541.154 113.612L539.986 114.782L556.349 149.865L558.686 148.695L564.53 159.22L561.608 160.974L578.556 196.057L581.478 194.303L586.738 205.413L583.816 207.167L600.763 242.834L604.854 241.08L609.529 251.605L606.023 253.359L622.97 288.442L627.061 286.688L632.905 297.798L627.646 299.552L644.593 334.635L650.437 332.881L655.697 343.99L649.853 345.16L666.216 380.827L667.385 382.581L666.216 380.827L673.229 379.658L678.488 390.183L672.06 391.937L818.16 698.328L819.329 701.836L830.432 697.158Z" fill="#233759"/>
<path d="M610.114 304.232L606.023 294.292L591.413 259.793V259.209L586.738 260.963L601.348 296.046L606.023 294.292L610.114 304.232Z" fill="#233759"/>
<path d="M590.828 258.048L586.738 248.692L571.543 212.44L570.374 210.101L571.543 213.025L568.037 214.194L582.062 250.447L586.738 248.692L590.828 258.048Z" fill="#233759"/>
<path d="M566.868 201.92L551.674 166.837L546.998 155.142L532.388 119.475L527.713 108.365L512.519 72.1126L507.259 61.003L492.065 24.1659L487.39 13.641L485.636 10.1327H485.052L486.805 14.2257L487.39 15.3952L486.805 13.641H487.39L492.065 24.1659L491.48 24.7506L506.09 61.5877L507.259 61.003L511.934 72.1126L511.35 72.6973V73.282L525.376 109.534L527.713 108.365L532.388 119.475L530.051 120.644L544.661 156.896L545.245 158.066L544.661 156.896L546.998 155.142L551.674 166.837L549.336 168.006L563.946 203.674L566.868 201.92Z" fill="#233759"/>
<path d="M783.68 716.459L782.512 714.12L648.684 396.034L644.593 386.094L629.983 351.011L625.308 340.486L610.698 305.404L605.438 307.158L619.464 341.656V342.241L625.308 340.486L629.399 351.011L623.555 352.766L637.58 387.264L639.918 392.526L637.58 387.264L644.593 386.094L648.684 396.619L642.256 397.789V398.373L771.992 718.213L773.161 720.552L783.68 716.459Z" fill="#233759"/>
<path d="M555.764 220.62L551.674 209.51L539.401 173.842L535.31 162.148L522.454 125.311L518.363 114.786L505.506 77.3643L501.415 65.6699L487.974 27.6634L487.39 28.2481L500.246 66.2547L500.831 65.6699L505.506 76.7795L504.337 77.949L516.61 115.371L518.363 114.201L522.454 125.311L520.116 127.065L532.973 163.317L535.31 162.148L539.401 173.842L536.479 175.012L548.752 211.264L551.674 209.51L555.764 220.035L552.258 221.789V222.374L564.53 257.457L568.621 256.287L555.764 220.62Z" fill="#233759"/>
<path d="M616.542 391.937L604.27 358.024L600.763 347.499L588.491 313.001L584.4 301.891L572.712 266.808L568.621 256.868L572.128 266.808L568.037 268.562L579.725 303.645L584.4 301.891L588.491 313.001L583.816 314.17L594.919 348.668H595.504L600.763 347.499L604.27 358.024L599.01 359.193V359.778L610.114 393.107V393.691L616.542 391.937L620.048 402.462L613.62 404.216L721.734 725.225H734.006L620.048 402.462L616.542 391.937Z" fill="#233759"/>
<path d="M487.39 25.9214L483.883 16.5659L482.13 11.3035L481.546 11.8882L483.299 16.5659H483.883L487.39 25.9214Z" fill="#233759"/>
<path d="M509.597 120.633L498.493 82.0417L494.987 70.3474L483.883 31.1714L480.377 19.4771L478.624 13.0453L478.039 13.63L479.792 20.0618L480.377 21.816L479.792 19.4771H480.377L483.299 31.1714L482.714 31.7562L493.818 70.9321L494.987 70.3474L498.493 82.0417L497.324 82.6264V83.2111L507.259 121.802L509.012 127.65L507.259 121.802L509.597 120.633Z" fill="#233759"/>
<path d="M589.66 398.366L579.725 364.452L576.803 354.512L566.868 320.014L563.362 308.904L554.011 274.406L550.505 263.881L540.57 227.629L537.064 216.519L527.129 180.851L523.038 169.157L512.519 131.735L509.597 121.795L512.519 131.735L510.181 133.489L520.7 170.327L523.038 168.572L526.544 180.267L524.207 182.021L534.142 218.273L537.064 216.519L540.57 227.629L537.064 229.383L546.414 265.051L550.505 263.881L553.427 274.406L549.92 276.16L558.686 311.243L563.362 308.904L566.868 320.014L562.193 321.768L570.959 355.681L571.543 358.02L570.959 355.681L576.218 354.512L579.725 365.037L574.465 366.206L583.231 399.535L589.075 398.366L591.997 408.306L586.153 409.475V410.06L672.06 725.222H683.748L591.997 408.306L589.66 398.366Z" fill="#233759"/>
<path d="M502.584 138.182L500.831 139.351H500.247H500.831L508.428 177.358L511.35 175.604L502.584 138.182Z" fill="#233759"/>
<path d="M513.687 187.888L510.765 189.058L518.947 225.895L521.869 224.141L523.622 230.573L522.453 224.141L513.687 187.888Z" fill="#233759"/>
<path d="M545.245 327.616L540.57 328.786L548.167 362.699L553.427 360.945L554.596 367.377L553.427 361.53L545.245 327.616Z" fill="#233759"/>
<path d="M524.791 235.226L521.285 236.98L528.882 272.648V273.233L532.973 270.894L534.141 278.495L532.973 270.894L524.791 235.226Z" fill="#233759"/>
<path d="M535.31 282.02L531.22 283.774L538.232 318.273L542.908 316.518L543.492 318.273L542.908 316.518L535.31 282.02Z" fill="#233759"/>
<path d="M562.777 404.214L564.53 411.815L562.777 404.214L555.18 371.47L549.92 372.639L556.933 405.383L562.777 404.214Z" fill="#233759"/>
<path d="M475.117 14.815L473.948 15.3997L475.702 23.001L476.286 22.4163L475.117 14.815Z" fill="#233759"/>
<path d="M479.208 34.6855L478.624 33.5161L479.208 34.6855L478.624 35.2702L486.805 76.2003L488.558 75.0309L479.208 34.6855Z" fill="#233759"/>
<path d="M491.48 87.2955L488.558 76.7706L490.896 87.2955L489.727 88.4649L497.909 127.641L500.246 126.471L502 133.488L500.246 126.471L491.48 87.2955Z" fill="#233759"/>
<path d="M478.624 35.2735L479.208 34.6888L478.624 33.5194L476.286 22.4098L475.702 22.9945L0 420.601V425.279L478.624 35.2735Z" fill="#233759"/>
<path d="M480.377 19.4697H479.792L480.377 21.8085L482.714 32.3334V31.7487L483.299 31.164L480.377 19.4697Z" fill="#233759"/>
<path d="M487.974 27.6667L487.39 25.9126L483.883 16.5571H483.299L486.805 28.2514H487.39L487.974 27.6667Z" fill="#233759"/>
<path d="M487.39 13.6442H486.805L487.39 15.3984L490.896 25.3385L491.481 24.7538L492.065 24.1691L487.39 13.6442Z" fill="#233759"/>
<path d="M490.896 10.7045H490.312L495.571 21.8141V21.2294L490.896 10.7045Z" fill="#233759"/>
<path d="M489.727 88.4769L490.896 87.3075L488.558 76.7826V75.0284L486.805 76.1979L0 438.137V441.645L489.727 88.4769Z" fill="#233759"/>
<path d="M494.987 70.3465L493.818 70.9312V71.516L496.74 83.2103L497.324 82.6256L498.493 82.0408L494.987 70.3465Z" fill="#233759"/>
<path d="M500.831 65.6643L500.246 66.249L499.662 66.8337L503.753 77.9433H504.337L505.506 76.7739L500.831 65.6643Z" fill="#233759"/>
<path d="M507.259 60.9824L506.09 61.5671V62.1518L510.766 73.2614L511.35 72.6767L511.934 72.092L507.259 60.9824Z" fill="#233759"/>
<path d="M513.688 56.8991L512.519 57.4838H511.935L517.194 68.0087H517.779L518.363 67.424L513.688 56.8991Z" fill="#233759"/>
<path d="M500.831 139.34L502.584 138.171V137.586L502 133.493L500.246 126.477L497.909 127.646L0 453.918V457.426L500.246 139.34H500.831Z" fill="#233759"/>
<path d="M509.597 121.794V120.624L507.259 121.794L509.012 127.641L510.181 133.488L512.519 131.734L509.597 121.794Z" fill="#233759"/>
<path d="M518.363 114.2L516.61 115.37V115.954L520.116 127.064L522.453 125.31L518.363 114.2Z" fill="#233759"/>
<path d="M527.713 108.347L525.375 109.517L530.051 120.626L532.388 119.457L527.713 108.347Z" fill="#233759"/>
<path d="M536.479 102.522L534.142 103.692L535.31 106.031L539.401 114.801H539.986L541.154 113.632L536.479 102.522Z" fill="#233759"/>
<path d="M545.245 96.6693L542.908 98.4235L543.492 99.0082L548.752 108.948L549.336 108.364L550.505 107.779L545.245 96.6693Z" fill="#233759"/>
<path d="M510.766 189.06L513.688 187.89L511.35 175.611L508.428 177.366L0 468.554V472.062L510.766 189.06Z" fill="#233759"/>
<path d="M523.038 168.588L520.7 170.343L523.622 182.037H524.207L526.544 180.283L523.038 168.588Z" fill="#233759"/>
<path d="M535.31 162.137L532.973 163.307H532.388L536.479 175.001L539.401 173.831L535.31 162.137Z" fill="#233759"/>
<path d="M546.998 155.141L544.661 156.895L545.245 158.065L549.336 168.005L551.674 166.836L546.998 155.141Z" fill="#233759"/>
<path d="M558.686 148.689L556.349 149.859L561.608 160.968L564.53 159.214L558.686 148.689Z" fill="#233759"/>
<path d="M521.285 236.984L524.791 235.23L523.622 230.552L521.869 224.12L518.947 225.874L0 482.564V486.073L521.285 236.984Z" fill="#233759"/>
<path d="M537.064 216.525L534.142 218.279H533.557L536.479 229.389H537.064L540.57 227.635L537.064 216.525Z" fill="#233759"/>
<path d="M551.673 209.502L548.752 211.256L552.258 221.781L555.764 220.027L551.673 209.502Z" fill="#233759"/>
<path d="M570.374 210.093L566.868 201.907L563.946 203.661L568.037 214.186L571.543 213.017L570.374 210.093Z" fill="#233759"/>
<path d="M581.478 194.313L578.556 196.067L583.816 207.176L586.738 205.422L581.478 194.313Z" fill="#233759"/>
<path d="M604.854 241.079L600.763 242.833L605.438 253.358H606.023L609.529 251.604L604.854 241.079Z" fill="#233759"/>
<path d="M591.413 259.226L590.828 258.057L586.738 248.701L582.062 250.455L586.738 260.98L591.413 259.226Z" fill="#233759"/>
<path d="M568.621 256.881V256.296L564.53 257.465L568.037 268.575L572.128 266.821L568.621 256.881Z" fill="#233759"/>
<path d="M550.505 263.891L546.414 265.06L549.336 276.17H549.92L553.427 274.416L550.505 263.891Z" fill="#233759"/>
<path d="M531.22 283.778L535.31 282.023L534.142 278.515L532.973 270.914L528.882 273.253L0 496.029V498.953L531.22 283.778Z" fill="#233759"/>
<path d="M627.061 286.702L622.971 288.457H622.386L627.646 299.566L632.905 297.812L627.061 286.702Z" fill="#233759"/>
<path d="M610.698 305.407L610.114 304.237L606.023 294.297L601.348 296.051L600.763 296.636L605.438 307.161L610.698 305.407Z" fill="#233759"/>
<path d="M584.4 301.892L579.725 303.646L583.816 314.756V314.171L588.491 313.002L584.4 301.892Z" fill="#233759"/>
<path d="M563.362 308.915L558.687 311.254L562.193 321.779L566.868 320.025L563.362 308.915Z" fill="#233759"/>
<path d="M540.57 328.789L545.245 327.619L543.492 318.264L542.908 316.51L538.232 318.264L0 508.297V511.22L540.57 328.789Z" fill="#233759"/>
<path d="M650.437 332.897L644.593 334.651L649.853 345.176L655.697 344.006L650.437 332.897Z" fill="#233759"/>
<path d="M625.308 340.492L619.464 342.246L623.555 352.771L629.399 351.016L625.308 340.492Z" fill="#233759"/>
<path d="M600.763 347.515L595.504 348.684L594.919 349.269L598.426 359.794L599.01 359.209L604.27 358.039L600.763 347.515Z" fill="#233759"/>
<path d="M576.218 354.51L570.959 355.68L571.543 358.019L573.881 366.205H574.465L579.725 365.035L576.218 354.51Z" fill="#233759"/>
<path d="M401.483 413.002L413.171 408.909V410.078L451.741 399.554V398.384L462.845 394.876L463.429 396.045L501.415 386.105V383.766L513.103 379.673V382.597L549.92 372.657L555.18 371.487L554.596 367.394L553.427 360.962L548.167 362.717H547.583L0 520.59V522.929L402.067 413.002H401.483Z" fill="#233759"/>
<path d="M673.229 379.663L666.216 380.833L667.385 382.587L671.476 391.942H672.06L678.488 390.188L673.229 379.663Z" fill="#233759"/>
<path d="M644.593 386.087L637.58 387.257L639.918 392.519L642.256 397.782L648.684 396.612L644.593 386.087Z" fill="#233759"/>
<path d="M501.415 383.756V386.095L513.103 382.587V379.663L501.415 383.756Z" fill="#233759"/>
</g>
</g>
<defs>
<clipPath id="clip0">
<rect width="1461" height="724.463" fill="white" transform="translate(0 0.768555)"/>
</clipPath>
</defs>
</svg>
